<svg xmlns="http://www.w3.org/2000/svg" viewBox="0 8.859999656677246 194.77999877929688 46.93000030517578" data-asc="0.9052734375" width="194.77999877929688" height="46.93000030517578"><defs/><g fill="#000000"><g transform="translate(0, 0)"><path d="M0 45.26L0 9.47L13.43 9.47Q17.53 9.47 20.01 10.56Q22.49 11.65 23.89 13.90Q25.29 16.16 25.29 18.63Q25.29 20.92 24.05 22.95Q22.80 24.98 20.29 26.22Q23.54 27.17 25.28 29.47Q27.03 31.76 27.03 34.89Q27.03 37.40 25.96 39.56Q24.90 41.72 23.34 42.90Q21.78 44.07 19.42 44.67Q17.07 45.26 13.65 45.26L0 45.26M4.74 24.51L12.48 24.51Q15.63 24.51 16.99 24.10Q18.80 23.56 19.71 22.31Q20.63 21.07 20.63 19.19Q20.63 17.41 19.78 16.05Q18.92 14.70 17.33 14.20Q15.75 13.70 11.89 13.70L4.74 13.70L4.74 24.51M4.74 41.04L13.65 41.04Q15.94 41.04 16.87 40.87Q18.51 40.58 19.60 39.89Q20.70 39.21 21.41 37.90Q22.12 36.60 22.12 34.89Q22.12 32.89 21.09 31.41Q20.07 29.93 18.25 29.33Q16.43 28.74 13.01 28.74L4.74 28.74L4.74 41.04ZM31.35 32.30Q31.35 25.10 35.35 21.63Q38.70 18.75 43.51 18.75Q48.85 18.75 52.25 22.25Q55.64 25.76 55.64 31.93Q55.64 36.94 54.14 39.81Q52.64 42.68 49.77 44.26Q46.90 45.85 43.51 45.85Q38.06 45.85 34.70 42.36Q31.35 38.87 31.35 32.30M35.86 32.30Q35.86 37.28 38.04 39.76Q40.21 42.24 43.51 42.24Q46.78 42.24 48.95 39.75Q51.12 37.26 51.12 32.15Q51.12 27.34 48.94 24.87Q46.75 22.39 43.51 22.39Q40.21 22.39 38.04 24.85Q35.86 27.32 35.86 32.30ZM75.32 45.26L75.32 9.47L91.19 9.47Q95.97 9.47 98.46 10.44Q100.95 11.40 102.44 13.84Q103.93 16.28 103.93 19.24Q103.93 23.05 101.46 25.66Q99.00 28.27 93.85 28.98Q95.73 29.88 96.70 30.76Q98.78 32.67 100.63 35.52L106.86 45.26L100.90 45.26L96.17 37.82Q94.09 34.59 92.75 32.89Q91.41 31.18 90.34 30.49Q89.28 29.81 88.18 29.54Q87.38 29.37 85.55 29.37L80.05 29.37L80.05 45.26L75.32 45.26M80.05 25.27L90.23 25.27Q93.48 25.27 95.31 24.60Q97.14 23.93 98.10 22.45Q99.05 20.97 99.05 19.24Q99.05 16.70 97.20 15.06Q95.36 13.43 91.38 13.43L80.05 13.43L80.05 25.27ZM110.60 55.25L110.11 51.12Q111.55 51.51 112.62 51.51Q114.09 51.51 114.97 51.03Q115.84 50.54 116.41 49.66Q116.82 49.00 117.75 46.39Q117.87 46.02 118.14 45.31L108.30 19.34L113.04 19.34L118.43 34.35Q119.48 37.21 120.31 40.36Q121.07 37.33 122.12 34.45L127.66 19.34L132.06 19.34L122.19 45.70Q120.61 49.98 119.73 51.59Q118.55 53.76 117.04 54.77Q115.53 55.79 113.43 55.79Q112.16 55.79 110.60 55.25ZM136.84 45.26L136.84 22.75L132.96 22.75L132.96 19.34L136.84 19.34L136.84 16.58Q136.84 13.96 137.30 12.70Q137.94 10.99 139.54 9.92Q141.14 8.86 144.02 8.86Q145.87 8.86 148.12 9.30L147.46 13.13Q146.09 12.89 144.87 12.89Q142.87 12.89 142.04 13.75Q141.21 14.60 141.21 16.94L141.21 19.34L146.26 19.34L146.26 22.75L141.21 22.75L141.21 45.26L136.84 45.26ZM149.83 45.26L149.83 22.75L145.95 22.75L145.95 19.34L149.83 19.34L149.83 16.58Q149.83 13.96 150.29 12.70Q150.93 10.99 152.53 9.92Q154.13 8.86 157.01 8.86Q158.86 8.86 161.11 9.30L160.45 13.13Q159.08 12.89 157.86 12.89Q155.86 12.89 155.03 13.75Q154.20 14.60 154.20 16.94L154.20 19.34L159.25 19.34L159.25 22.75L154.20 22.75L154.20 45.26L149.83 45.26ZM180.42 36.91L184.96 37.48Q183.89 41.46 180.98 43.65Q178.08 45.85 173.56 45.85Q167.87 45.85 164.54 42.35Q161.21 38.84 161.21 32.52Q161.21 25.98 164.58 22.36Q167.94 18.75 173.32 18.75Q178.52 18.75 181.81 22.29Q185.11 25.83 185.11 32.25Q185.11 32.64 185.08 33.42L165.75 33.42Q165.99 37.70 168.16 39.97Q170.34 42.24 173.58 42.24Q176.00 42.24 177.71 40.97Q179.42 39.70 180.42 36.91M165.99 29.81L180.47 29.81Q180.18 26.54 178.81 24.90Q176.71 22.36 173.36 22.36Q170.34 22.36 168.27 24.39Q166.21 26.42 165.99 29.81ZM190.38 45.26L190.38 9.47L194.78 9.47L194.78 45.26L190.38 45.26Z"/></g></g></svg>